<?xml version="1.0" standalone="no"?><!DOCTYPE svg PUBLIC "-//W3C//DTD SVG 1.1//EN" "http://www.w3.org/Graphics/SVG/1.1/DTD/svg11.dtd"><svg t="1652767417133" class="icon" viewBox="0 0 1024 1024" version="1.1" xmlns="http://www.w3.org/2000/svg" p-id="35052" xmlns:xlink="http://www.w3.org/1999/xlink" width="200" height="200"><defs><style type="text/css">@font-face { font-family: feedback-iconfont; src: url("//at.alicdn.com/t/font_1031158_u69w8yhxdu.woff2?t=1630033759944") format("woff2"), url("//at.alicdn.com/t/font_1031158_u69w8yhxdu.woff?t=1630033759944") format("woff"), url("//at.alicdn.com/t/font_1031158_u69w8yhxdu.ttf?t=1630033759944") format("truetype"); }
</style></defs><path d="M115.82 100.8c20.24-15.42 45.68-24.06 71.16-23.55 218.7 0.02 437.41-0.03 656.12 0.02 35.84 1.28 70.35 20.55 90.52 50.16 12.91 18.57 20.08 41 20.52 63.6 0.26 14.65 0.04 29.32 0.11 43.98 0 140.98 0.01 281.95 0 422.93 0.01 20.99-5.39 42.02-16.14 60.1a117.481 117.481 0 0 1-26.91 31.3c13.8 11.33 25.12 25.73 32.5 42.01 9.36 20.4 12.52 43.54 9.17 65.72-4.6 31.77-23.17 61.19-49.86 79.03-18.17 12.4-39.97 19.39-61.95 19.9H182.98c-34.9-0.65-68.91-18.27-89.74-46.26-22.76-29.69-29.45-70.64-17.73-106.12 6.84-21.2 20.03-40.2 37.28-54.26-19.71-15.99-33.99-38.56-39.78-63.29-2.75-11.13-3.39-22.64-3.26-34.06 0-149.68-0.01-299.37 0-449.05-0.17-12.36 0.3-24.86 3.35-36.9 6.11-25.83 21.57-49.26 42.72-65.26m31.66 34.69c-14.1 9.38-24.6 24.04-28.84 40.45-3.53 13.06-2.08 26.7-2.39 40.06 0.02 147.66-0.04 295.32 0.03 442.98-0.06 23.1 12.12 45.73 31.5 58.32 4.67 3.38 10.21 5.2 15.05 8.29 9.95-1.9 20.1-2.47 30.22-2.34h621.94c15.41 0.11 30.97-0.72 46.18 2.35 5.66-3.58 12.09-5.83 17.4-9.97 13.49-9.73 23.42-24.32 27.2-40.54 1.85-7.55 2.05-15.37 1.98-23.1-0.01-152.33 0.01-304.65-0.01-456.98 0.17-17.92-6.49-35.88-18.83-48.95-12.48-13.53-30.51-21.91-48.94-22.32-217.33 0.01-434.67 0.02-652 0-14.29-0.51-28.64 3.78-40.49 11.75m28.97 635.06c-22.21 3.01-42.31 17.54-52.44 37.48-6.89 13.44-9.31 29.17-6.53 44.04 3.03 16.98 12.68 32.65 26.41 43.08 12.5 9.66 28.37 14.83 44.17 14.36 210.98-0.03 421.95 0 632.93-0.01 8.35-0.19 16.74 0.45 25.07-0.46 19.69-2.24 38.06-13.48 49.22-29.82 11.51-16.48 15.34-38.08 9.98-57.48-6.12-23.52-25.44-43-48.89-49.33-8.54-2.48-17.49-2.8-26.32-2.66H193.94c-5.84-0.06-11.7 0.01-17.49 0.8z" p-id="35053" fill="#ffffff"></path><path d="M317.15 236.08c12.37-14.61 30.99-22.82 49.81-24.75 24.84-2.55 49.75 3.06 72.98 11.56 24 8.98 46.8 21.02 68.3 34.92 29.58-18.72 61.29-35.02 95.56-43.08 21.19-4.73 43.9-6.31 64.77 0.75 15.87 5.27 29.82 16.28 38.19 30.8 8.24 14.05 11.32 30.59 11 46.74-0.46 21.65-6.04 42.87-13.82 62.98-8.79 22.47-20.29 43.81-33.3 64.11 17.93 28.22 33.53 58.39 41.94 90.9 5.14 20.49 7.48 42.32 2.26 63.04-3.95 15.89-13.09 30.63-26.36 40.36-13.59 10.14-30.69 14.7-47.47 15.09-20.16 0.56-40.14-3.78-59.12-10.28-26.01-9.02-50.45-22.04-73.64-36.77-29.16 18.61-60.52 34.67-94.33 42.8-21.74 5.01-45.16 6.76-66.55-0.74-16.7-5.67-31.17-17.83-39.18-33.6-9.78-18.64-10.81-40.56-7.9-61.05 4.8-32.71 18.6-63.33 34.82-91.87 3.45-6.05 7.12-11.97 10.87-17.85-12.23-19.14-23.17-39.17-31.72-60.23-9.23-22.79-15.83-47.11-15.36-71.86 0.34-18.63 5.85-37.73 18.25-51.97m47.87 22.87c-7.23 1.86-13.78 6.86-16.5 13.95-4.59 11.46-3.47 24.23-1.32 36.1 4.99 24.89 15.78 48.19 28.3 70.12 27.06-33.88 57.97-64.64 91.74-91.82-20.79-11.93-42.84-22.15-66.29-27.51-11.74-2.53-24.16-3.97-35.93-0.84m242.81 2.81c-20.56 5.73-39.98 14.95-58.44 25.56 33.8 27.12 64.65 57.9 91.72 91.75 12.26-21.28 22.69-43.94 27.92-68.05 2.48-12.52 3.91-26.06-0.96-38.2-2.9-7.39-9.93-12.47-17.53-14.16-14.17-3.27-28.91-0.64-42.71 3.1M402.72 420.11c29.97 39.95 65.68 75.54 105.53 105.62 39.97-29.96 75.64-65.69 105.66-105.61-30.02-39.91-65.69-75.63-105.65-105.59-39.86 30.05-75.55 65.67-105.54 105.58m-27.23 41.03c-12.25 21.54-22.9 44.35-28.01 68.73-2.41 12.29-3.69 25.58 1.04 37.49 2.85 7.44 9.91 12.46 17.5 14.21 13.54 3.18 27.65 0.85 40.92-2.56 21.21-5.72 41.26-15.09 60.24-26.03-33.68-27.27-64.64-57.96-91.69-91.84m173.9 91.77c21.89 12.57 45.2 23.33 70.07 28.34 11.73 2.11 24.32 3.18 35.68-1.15 7.45-2.79 12.76-9.67 14.53-17.31 3.63-14.83 0.57-30.28-3.42-44.7-5.81-19.97-14.72-38.93-25.13-56.88-27.12 33.79-57.9 64.64-91.73 91.7z" p-id="35054" fill="#ffffff"></path><path d="M498.5 353.74c15.12-2.27 30.98 0.84 44.11 8.69 14.94 8.79 26.15 23.65 30.52 40.43 3.79 14.49 2.72 30.28-3.31 44.02-6.37 14.83-18.36 27.12-32.98 33.95-16.08 7.62-35.22 8.38-51.89 2.17-16.1-5.87-29.68-18.27-37.07-33.73-6.95-14.24-8.48-30.97-4.46-46.27 6.4-25.45 29.04-45.8 55.08-49.26m4.63 46.5c-7.39 1.89-13.4 8.17-14.92 15.65-2.12 8.94 2.9 18.76 11.14 22.66 6.92 3.55 15.76 2.43 21.76-2.45 6.52-5.07 9.35-14.31 6.76-22.16-3.02-10.08-14.54-16.73-24.74-13.7zM305.39 810.58c140.54-0.2 281.09-0.01 421.64-0.09 8.36-0.15 16.45 4.82 20.32 12.2 4.51 8.35 3.32 19.51-3.18 26.52-4.47 5.2-11.37 7.93-18.18 7.8-139.34-0.03-278.69 0.01-418.04-0.02-6.52-0.03-13-2.78-17.33-7.68-6.46-6.91-7.76-17.92-3.42-26.26 3.41-6.89 10.54-11.76 18.19-12.47z" p-id="35055" fill="#ffffff"></path></svg>