<?xml version="1.0" standalone="no"?><!DOCTYPE svg PUBLIC "-//W3C//DTD SVG 1.1//EN" "http://www.w3.org/Graphics/SVG/1.1/DTD/svg11.dtd"><svg t="1652767750413" class="icon" viewBox="0 0 1024 1024" version="1.1" xmlns="http://www.w3.org/2000/svg" p-id="1505" xmlns:xlink="http://www.w3.org/1999/xlink" width="200" height="200"><defs><style type="text/css">@font-face { font-family: feedback-iconfont; src: url("//at.alicdn.com/t/font_1031158_u69w8yhxdu.woff2?t=1630033759944") format("woff2"), url("//at.alicdn.com/t/font_1031158_u69w8yhxdu.woff?t=1630033759944") format("woff"), url("//at.alicdn.com/t/font_1031158_u69w8yhxdu.ttf?t=1630033759944") format("truetype"); }
</style></defs><path d="M102.4 125.1555552h45.51111147v773.6888896H102.4zM375.46666667 125.1555552h45.51111146v773.6888896h-45.51111146zM238.93333333 261.68888853h45.51111147v182.0444448h-45.51111147zM238.93333333 580.26666667h45.51111147v182.0444448h-45.51111147zM811.69066667 147.91111147L876.08888853 212.30933333v599.38133334L811.69066667 876.08888853h-189.78133334L557.51111147 811.69066667V212.30933333L621.90933333 147.91111147h189.78133334M830.57777813 102.4H603.02222187l-91.02222187 91.02222187v637.15555626l91.02222187 91.02222187h227.55555626l91.02222187-91.02222187V193.42222187l-91.02222187-91.02222187z" p-id="1506" fill="#ffffff"></path><path d="M716.8 284.4444448a22.7555552 22.7555552 0 1 1-22.7555552 22.7555552 22.7555552 22.7555552 0 0 1 22.7555552-22.7555552m0-45.51111147a68.26666667 68.26666667 0 1 0 68.26666667 68.26666667 68.26666667 68.26666667 0 0 0-68.26666667-68.26666667zM716.8 489.2444448a22.7555552 22.7555552 0 1 1-22.7555552 22.7555552 22.7555552 22.7555552 0 0 1 22.7555552-22.7555552m0-45.51111147a68.26666667 68.26666667 0 1 0 68.26666667 68.26666667 68.26666667 68.26666667 0 0 0-68.26666667-68.26666667zM716.8 694.0444448a22.7555552 22.7555552 0 1 1-22.7555552 22.7555552 22.7555552 22.7555552 0 0 1 22.7555552-22.7555552m0-45.51111147a68.26666667 68.26666667 0 1 0 68.26666667 68.26666667 68.26666667 68.26666667 0 0 0-68.26666667-68.26666667z" p-id="1507" fill="#ffffff"></path></svg>