<?xml version="1.0" standalone="no"?><!DOCTYPE svg PUBLIC "-//W3C//DTD SVG 1.1//EN" "http://www.w3.org/Graphics/SVG/1.1/DTD/svg11.dtd"><svg t="1652760784655" class="icon" viewBox="0 0 1024 1024" version="1.1" xmlns="http://www.w3.org/2000/svg" p-id="1172" xmlns:xlink="http://www.w3.org/1999/xlink" width="200" height="200"><defs><style type="text/css">@font-face { font-family: feedback-iconfont; src: url("//at.alicdn.com/t/font_1031158_u69w8yhxdu.woff2?t=1630033759944") format("woff2"), url("//at.alicdn.com/t/font_1031158_u69w8yhxdu.woff?t=1630033759944") format("woff"), url("//at.alicdn.com/t/font_1031158_u69w8yhxdu.ttf?t=1630033759944") format("truetype"); }
</style></defs><path d="M763.74012527 252.8l-2.92500027-2.92500027C618.78387527 110.7125 391.14012527 112.0625 252.033875 252.57499973 111.18387527 396.34999973 111.18387527 627.36874973 251.865125 770.97499973l2.92500027 2.92500027c142.03124973 139.10625027 369.61875027 137.81249973 508.83749946-2.81249973 140.84999973-143.775 140.79375027-373.275 0.11250054-518.28750027z m39.99375 557.71875c-161.09999973 162.78749973-424.18124973 164.30624973-588.54375054 3.375l-3.375-3.375c-162.28124973-165.65624973-162.28124973-431.6625 0.16875-597.375 160.9875-162.675 424.12500027-164.25000027 588.37500054-3.26250027l3.48749973 3.43125027c162.16875 167.23125 162.16875 431.55000027-0.11249973 597.20625z" p-id="1173" fill="#ffffff"></path><path d="M281.95887527 442.98125c-13.8375 0-23.06249973-9.22499973-23.06250054-23.06249973V327.95000027C258.89637473 291.10625 291.12762473 258.875 327.91512473 258.875h92.08125054c13.78124973 0 23.00625027 9.22499973 23.00624946 23.06249973 0 13.78124973-9.22499973 22.95-23.06249973 22.95H327.971375c-13.78124973 0-23.00625027 9.22499973-23.00625027 23.06250054v92.02499946c0 13.78124973-9.16875027 23.00625027-23.00624946 23.00625027zM419.940125 765.125H327.91512473C291.12762473 765.125 258.89637473 732.89375 258.89637473 696.10625V604.02500027c0-13.78124973 9.22499973-23.00625027 23.06250054-23.00625027 13.78124973 0 22.95 9.22499973 22.95 23.06249973v92.02500027c0 13.78124973 9.22499973 23.00625027 23.06249973 23.00625027h92.02500027c13.78124973 0 23.00625027 9.16875027 23.00624946 23.00624946 0 13.78124973-9.22499973 23.00625027-23.06249973 23.00625027z m276.13125027 0H604.046375c-13.78124973 0-23.00625027-9.22499973-23.00625027-23.06249973 0-13.78124973 9.22499973-22.95 23.06250054-22.95h92.02499946c13.78124973 0 23.00625027-9.22499973 23.00625027-23.06250054V604.08124973c0-13.78124973 9.16875027-23.00625027 23.00625027-23.00624946 13.78124973 0 23.00625027 9.22499973 23.00624946 23.06249973v92.02500027c0 36.7875-32.23125 69.01875-69.01875 69.01875z m46.01249973-322.14375c-13.8375 0-23.06249973-9.22499973-23.06249973-23.06249973V327.95000027c0-13.78124973-9.16875027-23.00625027-22.95-23.00625027H604.046375c-13.78124973 0-23.00625027-9.16875027-23.00625027-23.00625027 0-13.78124973 9.22499973-23.00625027 23.06250054-23.00624946h92.02499946C732.91512473 258.875 765.14637473 291.10625 765.14637473 327.89375v92.08124973c0 13.78124973-9.22499973 23.00625027-23.06249973 23.00625027z m0 92.02500027H281.902625C268.12137527 535.06249973 258.89637473 525.78124973 258.89637473 512c0-13.78124973 9.22499973-23.06249973 23.06250054-23.06249973h460.12499973c13.8375 0 23.06249973 9.28125 23.06249973 23.06249973 0 13.78124973-9.22499973 23.06249973-23.06249973 23.06249973z" p-id="1174" fill="#ffffff"></path></svg>