<?xml version="1.0" standalone="no"?><!DOCTYPE svg PUBLIC "-//W3C//DTD SVG 1.1//EN" "http://www.w3.org/Graphics/SVG/1.1/DTD/svg11.dtd"><svg t="1652767397828" class="icon" viewBox="0 0 1024 1024" version="1.1" xmlns="http://www.w3.org/2000/svg" p-id="34698" xmlns:xlink="http://www.w3.org/1999/xlink" width="200" height="200"><defs><style type="text/css">@font-face { font-family: feedback-iconfont; src: url("//at.alicdn.com/t/font_1031158_u69w8yhxdu.woff2?t=1630033759944") format("woff2"), url("//at.alicdn.com/t/font_1031158_u69w8yhxdu.woff?t=1630033759944") format("woff"), url("//at.alicdn.com/t/font_1031158_u69w8yhxdu.ttf?t=1630033759944") format("truetype"); }
</style></defs><path d="M676.378947 334.147368H347.621053c-21.557895 0-40.421053 18.863158-40.421053 40.421053V458.105263c0 21.557895 18.863158 40.421053 40.421053 40.421053h328.757894c21.557895 0 40.421053-18.863158 40.421053-40.421053v-83.536842c0-24.252632-18.863158-40.421053-40.421053-40.421053z m2.694737 123.957895s-2.694737 2.694737 0 0l-328.757895 2.694737s-2.694737 0-2.694736-2.694737v-83.536842s0-2.694737 2.694736-2.694737l328.757895 2.694737V458.105263z" p-id="34699" fill="#ffffff"></path><path d="M379.957895 433.852632h59.28421c10.778947 0 18.863158-8.084211 18.863158-18.863158s-8.084211-18.863158-18.863158-18.863158h-59.28421c-10.778947 0-18.863158 8.084211-18.863158 18.863158s8.084211 18.863158 18.863158 18.863158zM676.378947 525.473684H347.621053c-21.557895 0-40.421053 18.863158-40.421053 40.421053v83.536842c0 21.557895 18.863158 40.421053 40.421053 40.421053h328.757894c21.557895 0 40.421053-18.863158 40.421053-40.421053V565.894737c0-21.557895-18.863158-40.421053-40.421053-40.421053z m2.694737 123.957895c0 2.694737-2.694737 2.694737 0 0l-328.757895 2.694737s-2.694737 0-2.694736-2.694737V565.894737s0-2.694737 2.694736-2.694737l328.757895 2.694737v83.536842z" p-id="34700" fill="#ffffff"></path><path d="M379.957895 627.873684h59.28421c10.778947 0 18.863158-8.084211 18.863158-18.863158s-8.084211-18.863158-18.863158-18.863158h-59.28421c-10.778947 0-18.863158 8.084211-18.863158 18.863158s8.084211 18.863158 18.863158 18.863158zM94.315789 450.021053h2.694737c8.084211 0 16.168421-5.389474 18.863158-16.168421 29.642105-161.684211 158.989474-291.031579 320.673684-320.673685 10.778947-2.694737 16.168421-10.778947 16.168421-21.557894-2.694737-10.778947-10.778947-16.168421-21.557894-16.168421C253.305263 107.789474 113.178947 247.915789 80.842105 425.768421c-2.694737 13.473684 2.694737 24.252632 13.473684 24.252632zM436.547368 908.126316c-161.684211-29.642105-288.336842-156.294737-320.673684-317.978948-2.694737-10.778947-10.778947-16.168421-21.557895-16.168421-10.778947 2.694737-16.168421 10.778947-16.168421 21.557895 35.031579 175.157895 175.157895 315.284211 350.31579 347.621053h2.694737c8.084211 0 16.168421-5.389474 18.863158-16.168421 5.389474-8.084211-2.694737-16.168421-13.473685-18.863158zM929.684211 576.673684c-10.778947-2.694737-18.863158 5.389474-21.557895 16.168421-32.336842 158.989474-158.989474 285.642105-317.978948 317.978948-10.778947 2.694737-16.168421 10.778947-16.168421 21.557894 2.694737 8.084211 10.778947 16.168421 18.863158 16.168421h2.694737c175.157895-35.031579 312.589474-169.768421 347.621053-347.621052 2.694737-13.473684-2.694737-24.252632-13.473684-24.252632zM590.147368 115.873684c158.989474 32.336842 288.336842 158.989474 317.978948 320.673684 2.694737 8.084211 10.778947 16.168421 18.863158 16.168421h2.694737c10.778947-2.694737 16.168421-10.778947 16.168421-21.557894-32.336842-175.157895-172.463158-315.284211-347.621053-350.31579-10.778947-2.694737-18.863158 5.389474-21.557895 16.168421-5.389474 8.084211 2.694737 16.168421 13.473684 18.863158z" p-id="34701" fill="#ffffff"></path><path d="M970.105263 493.136842h-99.705263c-10.778947-183.242105-156.294737-328.757895-339.536842-339.536842V53.894737c0-10.778947-8.084211-18.863158-18.863158-18.863158s-18.863158 8.084211-18.863158 18.863158v99.705263c-183.242105 10.778947-328.757895 156.294737-339.536842 339.536842H53.894737c-10.778947 0-18.863158 8.084211-18.863158 18.863158s8.084211 18.863158 18.863158 18.863158h99.705263c10.778947 183.242105 156.294737 328.757895 339.536842 339.536842V970.105263c0 10.778947 8.084211 18.863158 18.863158 18.863158s18.863158-8.084211 18.863158-18.863158v-99.705263c183.242105-10.778947 328.757895-156.294737 339.536842-339.536842H970.105263c10.778947 0 18.863158-8.084211 18.863158-18.863158s-8.084211-18.863158-18.863158-18.863158zM512 832.673684c-177.852632 0-320.673684-142.821053-320.673684-320.673684 0-177.852632 142.821053-320.673684 320.673684-320.673684 177.852632 0 320.673684 142.821053 320.673684 320.673684 0 177.852632-142.821053 320.673684-320.673684 320.673684z" p-id="34702" fill="#ffffff"></path></svg>