<?xml version="1.0" standalone="no"?><!DOCTYPE svg PUBLIC "-//W3C//DTD SVG 1.1//EN" "http://www.w3.org/Graphics/SVG/1.1/DTD/svg11.dtd"><svg t="1652760814886" class="icon" viewBox="0 0 1024 1024" version="1.1" xmlns="http://www.w3.org/2000/svg" p-id="1173" xmlns:xlink="http://www.w3.org/1999/xlink" width="200" height="200"><defs><style type="text/css">@font-face { font-family: feedback-iconfont; src: url("//at.alicdn.com/t/font_1031158_u69w8yhxdu.woff2?t=1630033759944") format("woff2"), url("//at.alicdn.com/t/font_1031158_u69w8yhxdu.woff?t=1630033759944") format("woff"), url("//at.alicdn.com/t/font_1031158_u69w8yhxdu.ttf?t=1630033759944") format("truetype"); }
</style></defs><path d="M876.5 838.7c-7.65 0-14.85 1.35-21.6 4.05l-81-74.25v-96.3c99-17.55 174.15-104.4 174.15-208.35 0-99.45-70.2-185.4-166.05-206.55C741.5 143.9 631.7 66.05 509.75 66.05S278.45 143.9 237.5 257.3C141.65 278.45 71.45 364.4 71.45 463.85c0 106.2 78.75 194.4 180.9 209.25V768.5l-36 33.3c-6.75-2.25-13.95-4.05-21.15-4.05-34.2 0-61.65 27.45-61.65 61.65s27.45 61.65 61.65 61.65 61.65-27.45 61.65-61.65c0-5.85-0.9-11.25-2.25-16.65l54.45-49.95v-117.45h99v56.7c-20.7 9.9-34.65 31.05-34.65 55.35 0 34.2 27.45 61.65 61.65 61.65s61.65-27.45 61.65-61.65c0-23.4-13.05-43.65-32.4-54.45v-57.6h96.75v118.8c-19.8 10.35-33.3 31.05-33.3 54.9 0 34.2 27.45 61.65 61.65 61.65s61.65-27.45 61.65-61.65c0-23.85-13.5-44.55-33.3-54.9v-118.8H719v117.45l99 91.35c-1.35 4.95-2.25 10.35-2.25 16.2 0 34.2 27.45 61.65 61.65 61.65s61.65-27.45 61.65-61.65-28.35-61.65-62.55-61.65zM127.7 463.85c0-77.4 58.05-143.55 135-153.9l18-2.25 4.95-17.55c28.8-99 121.05-167.85 224.1-167.85s195.3 68.85 224.1 167.85l4.95 17.55 18 2.25c76.95 9.9 135 76.05 135 153.9 0 85.5-69.75 155.25-155.25 155.25H282.5c-85.5 0-154.8-69.75-154.8-155.25z" p-id="1174" fill="#ffffff"></path><path d="M496.7 489.5h212.85v56.25H496.7zM377.45 489.5h56.25v56.25H377.45z" p-id="1175" fill="#ffffff"></path></svg>