<?xml version="1.0" standalone="no"?><!DOCTYPE svg PUBLIC "-//W3C//DTD SVG 1.1//EN" "http://www.w3.org/Graphics/SVG/1.1/DTD/svg11.dtd"><svg t="1652760753128" class="icon" viewBox="0 0 1024 1024" version="1.1" xmlns="http://www.w3.org/2000/svg" p-id="1171" xmlns:xlink="http://www.w3.org/1999/xlink" width="200" height="200"><defs><style type="text/css">@font-face { font-family: feedback-iconfont; src: url("//at.alicdn.com/t/font_1031158_u69w8yhxdu.woff2?t=1630033759944") format("woff2"), url("//at.alicdn.com/t/font_1031158_u69w8yhxdu.woff?t=1630033759944") format("woff"), url("//at.alicdn.com/t/font_1031158_u69w8yhxdu.ttf?t=1630033759944") format("truetype"); }
</style></defs><path d="M787.76 235.52l-3.12000029-3.12000029C631.58000029 83.96 386.24000029 85.4 236.42 235.27999971a392.82000029 392.82000029 0 0 0-0.18 552.96l3.12000029 3.12000029c153 148.38000029 398.27999971 146.99999971 548.21999971-2.99999971a392.76 392.76 0 0 0 0.18-552.84000029z m43.08000029 594.9c-173.58000029 173.63999971-457.02 175.25999971-634.08000058 3.6l-3.6-3.6a452.45999971 452.45999971 0 0 1 0.12000058-637.2c173.40000029-173.52 456.90000029-175.20000029 633.96-3.48000029l3.71999971 3.66000029c174.71999971 178.38 174.71999971 460.32000029-0.11999971 637.02z m-540-390.12000029a17.03999971 17.03999971 0 0 0 17.1-16.92V328.69999971c0-12.35999971 10.19999971-22.5 22.79999971-22.5h103.14a17.03999971 17.03999971 0 0 0 17.03999971-16.92 17.03999971 17.03999971 0 0 0-17.1-16.79999942h-103.19999942a56.63999971 56.63999971 0 0 0-56.82000058 56.21999942v94.68c0 9.29999971 7.67999971 16.92 17.1 16.92z m410.15999971-167.87999971H597.79999971a17.03999971 17.03999971 0 0 0-17.1 16.92c0 9.29999971 7.67999971 16.92 17.1 16.92h103.20000029c12.48000029 0 22.74000029 10.08 22.74000029 22.5v94.68c0 9.29999971 7.62000029 16.92 17.03999971 16.92a17.03999971 17.03999971 0 0 0 17.1-16.92V328.69999971a56.7 56.7 0 0 0-56.88-56.27999971z m-267.18000029 438.00000029h-103.19999942a22.68 22.68 0 0 1-22.74000029-22.56000029V593.24000029a17.03999971 17.03999971 0 0 0-17.03999971-16.86000058 17.03999971 17.03999971 0 0 0-17.1 16.86000058v94.68c0 31.02000029 25.49999971 56.27999971 56.81999971 56.27999971h103.20000029a17.03999971 17.03999971 0 0 0 17.03999971-16.92 16.98000029 16.98000029 0 0 0-16.98000029-16.85999971z m306.96000029-134.04000058a17.03999971 17.03999971 0 0 0-17.03999971 16.86000058v94.68c0 12.42-10.19999971 22.56000029-22.80000058 22.55999942H597.79999971a17.03999971 17.03999971 0 0 0-17.1 16.86000058c0 9.36 7.67999971 16.92 17.1 16.92h103.20000029c31.32 0 56.81999971-25.2 56.81999971-56.28000058V593.24000029a16.92 16.92 0 0 0-17.03999971-16.86000058zM498.5 487.88h108.72a17.03999971 17.03999971 0 0 0 17.1-16.92 17.03999971 17.03999971 0 0 0-17.1-16.85999971H498.5a17.03999971 17.03999971 0 0 0-17.1 16.85999971c0 9.42000029 7.67999971 16.92 17.1 16.92z m-61.44000029 0h5.70000058a17.03999971 17.03999971 0 0 0 17.1-16.92 17.03999971 17.03999971 0 0 0-17.1-16.85999971h-5.70000058a17.03999971 17.03999971 0 0 0-17.03999971 16.85999971c0 9.42000029 7.62000029 16.92 17.03999971 16.92z m61.44000029 76.02000029h108.72a17.03999971 17.03999971 0 0 0 17.1-16.92 17.03999971 17.03999971 0 0 0-17.1-16.86000058H498.5a17.03999971 17.03999971 0 0 0-17.1 16.86000058c0 9.36 7.67999971 16.92 17.1 16.92z m-61.44000029 0h5.70000058a17.03999971 17.03999971 0 0 0 17.1-16.92 17.03999971 17.03999971 0 0 0-17.1-16.86000058h-5.70000058a17.03999971 17.03999971 0 0 0-17.03999971 16.86000058c0 9.36 7.62000029 16.92 17.03999971 16.92zM338.77999971 432.62V584c0 31.02000029 25.49999971 56.27999971 56.82000058 56.27999971h240.48c31.32 0 56.81999971-25.2 56.81999971-56.27999971V432.62a56.63999971 56.63999971 0 0 0-56.81999971-56.27999971H395.60000029a56.63999971 56.63999971 0 0 0-56.82000058 56.27999971z m320.04 0V584c0 12.42-10.19999971 22.5-22.79999971 22.5H395.60000029a22.68 22.68 0 0 1-22.74000029-22.5V432.62c0-12.35999971 10.19999971-22.5 22.79999971-22.5h240.42000058c12.48000029 0 22.74000029 10.08 22.73999942 22.5z" p-id="1172" fill="#ffffff"></path></svg>