<?xml version="1.0" standalone="no"?><!DOCTYPE svg PUBLIC "-//W3C//DTD SVG 1.1//EN" "http://www.w3.org/Graphics/SVG/1.1/DTD/svg11.dtd"><svg t="1652767924362" class="icon" viewBox="0 0 1024 1024" version="1.1" xmlns="http://www.w3.org/2000/svg" p-id="1595" xmlns:xlink="http://www.w3.org/1999/xlink" width="200" height="200"><defs><style type="text/css">@font-face { font-family: feedback-iconfont; src: url("//at.alicdn.com/t/font_1031158_u69w8yhxdu.woff2?t=1630033759944") format("woff2"), url("//at.alicdn.com/t/font_1031158_u69w8yhxdu.woff?t=1630033759944") format("woff"), url("//at.alicdn.com/t/font_1031158_u69w8yhxdu.ttf?t=1630033759944") format("truetype"); }
</style></defs><path d="M512 426.62115555a40.96 40.96 0 0 1 40.96 40.96v45.11061334a183.37336889 183.37336889 0 0 1 93.51623111 54.03079111l39.10314667-22.57351111a40.96 40.96 0 1 1 40.96 70.94272l-39.04853333 22.55530666c5.24288 17.07576889 8.06456889 35.20739555 8.06456888 54.01258667 0 18.80519111-2.82168889 36.95502222-8.06456888 54.01258667l39.04853333 22.57351111a40.96 40.96 0 1 1-40.96 70.92451555l-39.10314667-22.5735111A183.37336889 183.37336889 0 0 1 552.96 870.62755555v45.12881778a40.96 40.96 0 1 1-81.92 0V870.62755555a183.37336889 183.37336889 0 0 1-93.51623111-54.04899555l-39.10314667 22.57351111a40.96 40.96 0 0 1-40.96-70.94272l39.04853333-22.55530666a183.51900445 183.51900445 0 0 1-8.06456888-54.01258667c0-18.80519111 2.82168889-36.95502222 8.06456888-54.01258667l-39.04853333-22.57351111a40.96 40.96 0 0 1 40.96-70.92451555l39.10314667 22.5735111a183.37336889 183.37336889 0 0 1 93.53443556-54.0307911l-0.01820445-45.11061334A40.96 40.96 0 0 1 512 426.62115555z m0 163.40309334a101.5808 101.5808 0 0 0-87.76362667 50.33528889l-0.25486222 0.47331555a100.98005333 100.98005333 0 0 0-13.61692444 50.82680889c0 18.40469333 4.87879111 35.68071111 13.43488 50.57194667l0.18204444 0.25486222 0.25486222 0.47331556A101.5808 101.5808 0 0 0 512 793.29507555a101.5808 101.5808 0 0 0 87.76362667-50.33528888l0.25486222-0.47331556 0.16384-0.27306666c8.55608889-14.87303111 13.47128889-32.14904889 13.47128889-50.55374223 0-18.45930667-4.9152-35.77173333-13.52590223-50.68117333l-0.10922666-0.14563556-0.25486222-0.47331555A101.5808 101.5808 0 0 0 512 590.02424889zM510.17955555 110.592a359.66520889 359.66520889 0 0 1 337.72885334 235.98421333 227.77400889 227.77400889 0 0 1 151.78865778 125.13735112 226.82737778 226.82737778 0 0 1 21.11715555 95.8099911 227.61016889 227.61016889 0 0 1-153.28142222 215.14012445 40.96 40.96 0 1 1-26.72412445-77.42350222 145.70837333 145.70837333 0 0 0-28.81763555-282.16888889 40.96 40.96 0 0 1-34.82510222-31.87598222 40.30464 40.30464 0 0 1-2.76707556-6.5536 277.74520889 277.74520889 0 0 0-530.11342222 5.33390222l0.63715555-1.96608a40.97820445 40.97820445 0 0 1-34.87971555 35.31662222 145.67196445 145.67196445 0 0 0-27.37948445 281.71377778l2.73066667 1.07406222a40.96 40.96 0 0 1-29.76426667 76.27662222 227.61016889 227.61016889 0 0 1 16.45681778-434.79495111A359.66520889 359.66520889 0 0 1 510.17955555 110.592z" fill="#ffffff" p-id="1596"></path></svg>