<?xml version="1.0" standalone="no"?><!DOCTYPE svg PUBLIC "-//W3C//DTD SVG 1.1//EN" "http://www.w3.org/Graphics/SVG/1.1/DTD/svg11.dtd"><svg t="1652760585914" class="icon" viewBox="0 0 1024 1024" version="1.1" xmlns="http://www.w3.org/2000/svg" p-id="1171" xmlns:xlink="http://www.w3.org/1999/xlink" width="200" height="200"><defs><style type="text/css">@font-face { font-family: feedback-iconfont; src: url("//at.alicdn.com/t/font_1031158_u69w8yhxdu.woff2?t=1630033759944") format("woff2"), url("//at.alicdn.com/t/font_1031158_u69w8yhxdu.woff?t=1630033759944") format("woff"), url("//at.alicdn.com/t/font_1031158_u69w8yhxdu.ttf?t=1630033759944") format("truetype"); }
</style></defs><path d="M879.49999971 869.50000039H144.50000029C99.50000029 869.50000039 62 832.0000001 62 787.0000001V236.9999999c0-45 37.50000029-82.50000029 82.50000029-82.50000029h734.99999942C924.49999971 154.49999961 962 191.9999999 962 236.9999999v550.0000002c0 45-37.50000029 82.50000029-82.50000029 82.50000029zM144.50000029 197c-22.5 0-39.9999999 17.4999999-39.9999999 39.9999999v550.0000002c0 22.5 17.4999999 39.9999999 39.9999999 39.9999999h734.99999942c22.5 0 39.9999999-17.4999999 39.9999999-39.9999999V236.9999999c0-22.5-17.4999999-39.9999999-39.9999999-39.9999999H144.50000029z" p-id="1172" fill="#ffffff"></path><path d="M266.99999961 726.9999998H207.00000019v-185.00000009h59.99999942v185.0000001zM389.4999998 541.99999971h62.49999991v182.50000048h-62.4999999zM574.4999999 541.99999971H636.9999998v182.50000048h-62.4999999zM816.99999981 726.9999998h-59.99999942v-185.00000009h62.4999999v185.0000001zM877.0000001 427.0000001H146.9999999V229.5000002h730.0000002v197.4999999zM179.5000001 397.00000039h667.50000029V262.00000039H179.5000001v135z" p-id="1173" fill="#ffffff"></path></svg>