<?xml version="1.0" standalone="no"?><!DOCTYPE svg PUBLIC "-//W3C//DTD SVG 1.1//EN" "http://www.w3.org/Graphics/SVG/1.1/DTD/svg11.dtd"><svg t="1652767929431" class="icon" viewBox="0 0 1024 1024" version="1.1" xmlns="http://www.w3.org/2000/svg" p-id="1791" xmlns:xlink="http://www.w3.org/1999/xlink" width="200" height="200"><defs><style type="text/css">@font-face { font-family: feedback-iconfont; src: url("//at.alicdn.com/t/font_1031158_u69w8yhxdu.woff2?t=1630033759944") format("woff2"), url("//at.alicdn.com/t/font_1031158_u69w8yhxdu.woff?t=1630033759944") format("woff"), url("//at.alicdn.com/t/font_1031158_u69w8yhxdu.ttf?t=1630033759944") format("truetype"); }
</style></defs><path d="M782.46875 872c16.3096875 0 29.53125 13.2215625 29.53125 29.53125v0.9375c0 16.3096875-13.2215625 29.53125-29.53125 29.53125h-540.9375c-16.3096875 0-29.53125-13.2215625-29.53125-29.53125v-0.9375c0-16.3096875 13.2215625-29.53125 29.53125-29.53125h540.9375zM856.0625 92.9375c41.4215625 0 75 33.5784375 75 75v569.0625c0 41.4215625-33.5784375 75-75 75H167c-41.4215625 0-75-33.5784375-75-75V167.9375c0-41.4215625 33.5784375-75 75-75h689.0625z m-7.5 60H174.5c-12.4265625 0-22.5 10.0734375-22.5 22.5v554.0625c0 12.4265625 10.0734375 22.5 22.5 22.5h674.0625c12.4265625 0 22.5-10.0734375 22.5-22.5V175.4375c0-12.4265625-10.0734375-22.5-22.5-22.5zM287 332c16.5684375 0 30 13.4315625 30 30v300c0 16.5684375-13.4315625 30-30 30-16.5684375 0-30-13.4315625-30-30V362c0-16.5684375 13.4315625-30 30-30z m150 180c16.5684375 0 30 13.4315625 30 30v120c0 16.5684375-13.4315625 30-30 30-16.5684375 0-30-13.4315625-30-30V542c0-16.5684375 13.4315625-30 30-30z m150-270c16.5684375 0 30 12.5915625 30 28.125v393.75c0 15.5334375-13.4315625 28.125-30 28.125-16.5684375 0-30-12.5915625-30-28.125V270.125c0-15.5334375 13.4315625-28.125 30-28.125z m150 150c16.5684375 0 30 13.4315625 30 30v240c0 16.5684375-13.4315625 30-30 30-16.5684375 0-30-13.4315625-30-30V422c0-16.5684375 13.4315625-30 30-30z" p-id="1792" fill="#ffffff"></path></svg>